<?xml version="1.0" encoding="UTF-8"?>
<!DOCTYPE svg PUBLIC "-//W3C//DTD SVG 1.1//EN" "http://www.w3.org/Graphics/SVG/1.1/DTD/svg11.dtd">
<svg xmlns="http://www.w3.org/2000/svg" version="1.1" width="46px" height="46px" style="shape-rendering:geometricPrecision; text-rendering:geometricPrecision; image-rendering:optimizeQuality; fill-rule:evenodd; clip-rule:evenodd" xmlns:xlink="http://www.w3.org/1999/xlink">
<g><path style="opacity:1" fill="#212225" d="M -0.5,-0.5 C 14.8333,-0.5 30.1667,-0.5 45.5,-0.5C 45.5,14.8333 45.5,30.1667 45.5,45.5C 30.1667,45.5 14.8333,45.5 -0.5,45.5C -0.5,30.1667 -0.5,14.8333 -0.5,-0.5 Z"/></g>
<g><path style="opacity:1" fill="#f2f2f3" d="M 19.5,8.5 C 30.6548,7.32202 35.9881,12.322 35.5,23.5C 29.8236,23.3339 24.1569,23.5006 18.5,24C 19.1043,26.4675 20.4376,28.4675 22.5,30C 26.1483,30.0621 29.815,29.8954 33.5,29.5C 33.5,31.5 33.5,33.5 33.5,35.5C 18.4193,38.5701 11.2527,32.5701 12,17.5C 13.6416,13.6997 16.1416,10.6997 19.5,8.5 Z"/></g>
<g><path style="opacity:1" fill="#eceded" d="M 0.5,8.5 C 4.88387,8.17443 9.2172,8.50776 13.5,9.5C 12.4905,12.337 10.4905,13.6703 7.5,13.5C 7.5,20.5 7.5,27.5 7.5,34.5C 5.16667,34.5 2.83333,34.5 0.5,34.5C 0.5,25.8333 0.5,17.1667 0.5,8.5 Z"/></g>
<g><path style="opacity:1" fill="#2a2b2e" d="M 21.5,13.5 C 25.5769,13.0171 27.9103,14.6837 28.5,18.5C 25.1016,18.8204 21.7683,18.487 18.5,17.5C 19.5244,16.1482 20.5244,14.8149 21.5,13.5 Z"/></g>
<g><path style="opacity:1" fill="#f0f1f1" d="M 37.5,27.5 C 43.3133,27.062 44.98,29.562 42.5,35C 35.745,35.7558 34.0783,33.2558 37.5,27.5 Z"/></g>
</svg>
